<svg xmlns="http://www.w3.org/2000/svg" width="135" height="31" fill="none" viewBox="0 0 135 31">
    <g clip-path="url(#clip0)">
        <path fill="#05324E" d="M60.02 22.78c0 .56-.09.93-.27 1.12-.18.19-.56.28-1.14.28H42.38c-.56 0-.93-.09-1.12-.28-.19-.19-.28-.56-.28-1.12V1h-4.09v22.34c0 1.36.48 2.52 1.44 3.48s2.12 1.44 3.48 1.44h17.42c1.34 0 2.49-.48 3.47-1.44.97-.96 1.46-2.12 1.46-3.48V1h-4.13v21.78h-.01zM94.11 1H76.72c-1.36 0-2.53.48-3.48 1.44-.96.96-1.44 2.12-1.44 3.48v22.34h4.09v-9.54h19.05v9.54h4.13V5.92c0-1.36-.49-2.52-1.46-3.48S95.47 1 94.11 1zm.83 13.63H75.89V6.49c0-.56.09-.93.28-1.12.19-.19.56-.28 1.12-.28h16.25c.58 0 .96.09 1.14.28.18.19.27.56.27 1.12v8.14h-.01zM132.68 2.44c-.98-.96-2.14-1.44-3.51-1.44h-22.31v27.27h22.31c1.36 0 2.53-.48 3.5-1.44.97-.96 1.46-2.12 1.46-3.48V5.92c0-1.36-.48-2.52-1.45-3.48zm-2.67 20.34c0 .56-.09.93-.27 1.12-.18.19-.56.28-1.14.28h-16.25c-.56 0-.93-.09-1.12-.28-.19-.19-.28-.56-.28-1.12V6.49c0-.56.09-.93.28-1.12.19-.19.56-.28 1.12-.28h16.25c.58 0 .96.09 1.14.28.18.19.27.56.27 1.12v16.29zM27.27 23.34V5.92c0-1.36-.49-2.52-1.46-3.48S23.67 1 22.31 1H4.92c-1.36 0-2.52.48-3.48 1.44S0 4.56 0 5.92v17.42c0 1.36.48 2.52 1.44 3.48s2.12 1.44 3.48 1.44H22.34c.64 0 1.23-.11 1.78-.32l2.33 2.33 2.92-2.92L27 24.98c.17-.51.27-1.05.27-1.64zm-21.78.84c-.56 0-.93-.09-1.12-.28-.19-.19-.28-.56-.28-1.12V6.49c0-.56.09-.93.28-1.12.19-.19.56-.28 1.12-.28h16.25c.58 0 .96.09 1.14.28.18.19.27.56.27 1.12v14.63l-2.98-2.98-2.92 2.92 3.12 3.12H5.49z"/>
    </g>
    <defs>
        <clipPath id="clip0">
            <path fill="#fff" d="M0 0H134.13V29.27H0z" transform="translate(0 1)"/>
        </clipPath>
    </defs>
</svg>
